<svg xmlns="http://www.w3.org/2000/svg" width="300" height="300" x="0" y="0" fill="#fff" viewBox="0 0 64 64"><title>pig-farm-animal-mammal-food</title><g><path d="M 60.038 18.766 C 55.073 19.16 52.283 15.689 52.283 15.689 C 50.824 14.063 49.693 13.911 47.916 13.62 C 47.916 13.62 46.182 13.667 46.058 13.677 L 38.208 15.651 L 25.28 15.951 L 13.137 16.061 C 8.083 16.123 4.731 18.918 3.576 24.646 L 3.471 34.483 C 3.555 35.25 3.69 37.195 5.339 38.477 C 6.201 39.153 7.238 40.222 7.486 41.289 L 9.065 47.893 C 9.169 48.347 8.675 48.328 9.141 48.328 L 12.708 48.334 C 13.317 48.334 12.651 47.693 12.565 47.09 L 11.86 41.837 L 16.947 37.919 L 17.103 43.017 C 17.138 43.733 17.075 43.468 17.38 44.213 L 18.629 48.013 C 18.781 48.393 18.531 48.428 18.839 48.533 L 22.023 48.49 C 22.731 48.491 22.321 48.624 22.058 47.967 L 20.588 43.762 L 24.725 36.695 L 31.166 38.389 L 33.401 48.269 C 33.494 48.738 33.251 48.475 33.729 48.475 L 35.491 48.53 C 35.973 48.53 35.745 48.673 35.833 48.199 L 37.781 39.722 C 37.961 39.607 40.19 38.853 40.325 38.78 L 41.424 48.149 C 41.53 48.137 41.382 48.456 41.901 48.454 L 44.301 48.467 C 44.338 48.468 44.318 48.356 44.282 47.78 L 43.5 37.222 C 45.873 35.574 48.496 33.124 50.03 30.676 C 50.325 30.201 51.639 29.164 52.159 28.958 L 59.964 25.845 C 59.934 25.796 60.338 25.738 60.318 25.775 L 60.337 18.872 C 60.378 18.941 60.12 18.723 60.038 18.766 Z M 38.093 16.122 L 44.844 16.036 C 43.869 17.608 39.883 20.727 38.055 21.01 L 38.093 16.122 Z M 20.186 43.419 C 19.988 43.696 19.944 44.055 20.071 44.372 L 21.523 48 L 19.177 48 L 17.495 43.124 L 17.313 37.714 L 20.43 35.555 L 24.367 36.528 L 20.186 43.419 Z M 43.936 48 L 41.913 48 L 40.688 38.546 C 41.435 38.239 42.34 37.924 43.047 37.533 L 43.936 48 Z M 60 25.323 L 51.732 28.63 C 50.817 28.994 50.042 29.642 49.522 30.478 C 46.863 34.751 42.642 37.819 37.757 39.03 C 37.377 39.125 37.088 39.433 37.017 39.818 L 35.5 48 L 33.82 48 L 31.98 38.8 C 31.907 38.433 31.635 38.138 31.275 38.035 L 20.775 35.035 C 20.474 34.949 20.15 35.008 19.9 35.196 L 11.9 41.196 C 11.608 41.415 11.458 41.776 11.51 42.138 L 12.347 48 L 9.629 48 L 8.268 42.1 C 7.917 40.587 7.059 39.24 5.837 38.281 C 4.675 37.377 3.997 35.985 4 34.513 L 4.002 29.212 C 6.812 30.539 9.476 30.224 11.629 28.906 C 12.286 28.504 13.101 28.388 12.393 28.085 C 12.064 27.945 11.686 27.991 11.4 28.205 C 9.309 29.782 6.469 29.928 4.227 28.575 L 4 28.434 L 4 25.711 C 4 20.575 8.164 16.411 13.3 16.411 L 25.385 16.411 L 36.908 16 C 36.94 16 36.971 15.992 37.003 15.988 L 37.756 15.973 L 37.7 20.856 C 37.7 21.408 37.485 21.627 38.015 21.472 C 40.461 20.759 44.562 17.335 45.252 15.893 C 45.252 15.893 44.851 15.675 44.143 15.675 L 39.11 15.768 L 46.108 14 L 47.636 14 C 49.253 14.001 50.793 14.689 51.872 15.893 L 51.944 15.973 C 54.062 18.117 56.988 19.267 60 19.137 L 60 25.323 Z" style="fill:#000;stroke-width:.4px;stroke:transparent"/><path d="M49.24,18.08a1.155,1.155,0,0,0-.33.21,1.052,1.052,0,0,0-.29.71,1.5,1.5,0,0,0,.02.2,1.266,1.266,0,0,0,.06.18.757.757,0,0,0,.09.18l.12.15a1.155,1.155,0,0,0,.33.21,1,1,0,0,0,.38.08,1.033,1.033,0,0,0,.71-.29.789.789,0,0,0,.12-.15,1.618,1.618,0,0,0,.1-.18,1.209,1.209,0,0,0,.05-.18.714.714,0,0,0,.02-.2.99.99,0,0,0-1.38-.92Z" style="stroke:#000;stroke-width:.4px"/></g><title>pig-farm-animal-mammal-food</title><g><path d="M49.24,18.08a1.155,1.155,0,0,0-.33.21,1.052,1.052,0,0,0-.29.71,1.5,1.5,0,0,0,.02.2,1.266,1.266,0,0,0,.06.18.757.757,0,0,0,.09.18l.12.15a1.155,1.155,0,0,0,.33.21,1,1,0,0,0,.38.08,1.033,1.033,0,0,0,.71-.29.789.789,0,0,0,.12-.15,1.618,1.618,0,0,0,.1-.18,1.209,1.209,0,0,0,.05-.18.714.714,0,0,0,.02-.2.99.99,0,0,0-1.38-.92Z" style="fill:#fdd7e4" transform="matrix(1, 0, 0, 1, 69.699562, -4.416204)"/></g></svg>