<?xml version="1.0" standalone="no"?>
<!DOCTYPE svg PUBLIC "-//W3C//DTD SVG 20010904//EN"
 "http://www.w3.org/TR/2001/REC-SVG-20010904/DTD/svg10.dtd">
<svg version="1.0" xmlns="http://www.w3.org/2000/svg"
 width="933.000000pt" height="933.000000pt" viewBox="0 0 933.000000 933.000000"
 preserveAspectRatio="xMidYMid meet">
<metadata>
Created by potrace 1.14, written by Peter Selinger 2001-2017
</metadata>
<g transform="translate(0.000000,933.000000) scale(0.100000,-0.100000)"
fill="#000000" stroke="none">
<path d="M2579 7701 c-1 -3 -2 -755 -3 -1671 l-1 -1665 21 -20 c28 -28 400
-330 579 -470 21 -16 43 -35 49 -40 6 -6 70 -58 141 -115 164 -132 164 -132
181 -148 8 -7 14 -10 14 -6 0 4 6 1 13 -8 11 -15 103 -92 177 -148 31 -23 41
-32 98 -81 12 -10 25 -19 28 -19 4 0 12 -6 18 -14 6 -7 94 -80 196 -162 182
-146 280 -225 303 -244 7 -6 44 -35 82 -66 122 -99 147 -119 160 -131 21 -20
44 -15 78 17 18 16 35 30 39 30 4 0 13 6 21 14 16 17 121 103 158 131 41 31
223 178 229 185 3 3 25 21 50 40 69 53 70 54 88 71 9 8 118 96 242 195 123 98
232 186 241 194 10 8 24 20 31 26 106 84 437 351 448 361 15 13 110 89 185
148 21 17 43 35 49 40 6 6 56 46 111 90 55 44 109 88 119 98 11 9 22 17 26 17
3 0 5 755 5 1679 l0 1679 -2087 0 c-1149 0 -2088 -3 -2089 -7z m976 -247 c22
-15 56 -63 55 -79 -3 -89 1 -126 18 -131 97 -31 222 -136 264 -222 12 -26 22
-50 20 -54 -1 -5 2 -8 6 -8 5 0 9 -6 10 -12 1 -7 4 -26 8 -43 3 -16 7 -57 9
-90 2 -47 -1 -66 -17 -88 -32 -45 -74 -66 -124 -62 -77 6 -114 53 -129 159 -3
22 -11 46 -18 54 -6 8 -10 17 -7 19 10 7 -65 75 -98 89 -71 29 -172 9 -223
-46 -28 -29 -50 -79 -56 -128 -10 -89 54 -158 193 -207 109 -37 153 -54 194
-73 171 -79 277 -223 285 -387 3 -54 -1 -86 -19 -164 -19 -85 -134 -231 -205
-262 -17 -8 -31 -17 -31 -20 0 -3 -18 -11 -40 -18 l-40 -12 -1 -54 c-1 -30 -3
-59 -4 -65 -1 -5 -3 -17 -4 -25 -3 -37 -86 -94 -131 -90 -8 1 -23 3 -32 3 -29
3 -86 61 -94 95 -4 18 -7 55 -7 82 l1 50 -71 34 c-132 63 -249 216 -261 339
-2 24 -6 46 -9 48 -12 12 16 101 40 126 45 47 90 53 174 22 24 -8 56 -80 63
-138 12 -101 94 -176 194 -176 143 0 243 133 195 259 -24 63 -79 98 -238 154
-136 48 -186 71 -240 113 -80 61 -130 127 -166 220 -22 56 -19 211 5 282 41
121 163 249 272 287 34 12 39 17 38 44 0 17 3 31 8 31 5 0 5 7 0 17 -12 21 2
67 34 109 16 21 36 34 66 41 45 10 71 5 113 -23z m2752 -287 c61 -32 85 -120
51 -185 -6 -12 -28 -33 -47 -45 l-36 -22 -875 -1 c-836 0 -877 1 -913 18 -71
35 -94 136 -45 198 45 58 -1 55 955 55 812 -1 880 -2 910 -18z m6 -821 c88
-59 81 -186 -13 -237 -20 -11 -187 -13 -895 -14 -905 -2 -910 -1 -951 39 -21
22 -43 79 -39 102 2 10 4 26 4 34 2 23 53 76 84 86 16 5 391 9 905 9 839 -1
878 -1 905 -19z m2 -824 c39 -31 52 -51 59 -92 8 -53 -23 -112 -70 -136 -38
-18 -70 -19 -914 -19 -920 1 -895 0 -940 44 -44 43 -45 135 -1 182 43 46 18
45 953 44 l883 0 30 -23z m-14 -809 c52 -22 76 -78 71 -159 -3 -30 -55 -81
-94 -91 -52 -14 -3168 -8 -3198 5 -50 22 -64 41 -80 110 -4 18 -4 35 1 38 5 3
9 13 9 23 0 21 46 66 78 78 37 14 3181 9 3213 -4z"/>
<path d="M2260 5253 c-19 -15 -40 -32 -46 -38 -6 -5 -26 -21 -44 -35 -18 -14
-42 -33 -54 -43 -11 -10 -34 -28 -49 -40 -15 -12 -40 -32 -55 -45 -15 -13 -53
-44 -84 -69 -32 -25 -58 -49 -58 -52 0 -3 12 -15 27 -26 14 -11 31 -24 37 -30
6 -5 34 -28 61 -49 28 -22 57 -46 65 -53 8 -7 53 -43 100 -80 47 -37 91 -73
98 -80 8 -7 21 -17 30 -22 16 -9 17 15 17 340 0 192 -2 349 -5 349 -3 0 -21
-12 -40 -27z"/>
<path d="M7029 5273 c-3 -26 -3 -693 0 -693 3 0 69 51 106 82 11 9 88 71 170
138 83 67 151 125 153 129 2 7 -21 30 -78 74 -54 42 -126 103 -128 110 -2 4
-8 7 -13 7 -5 0 -17 8 -27 18 -10 9 -35 31 -56 47 -36 29 -46 36 -95 78 -23
19 -31 21 -32 10z"/>
<path d="M1783 3140 l0 -1500 36 27 c52 40 195 155 201 162 3 3 23 19 45 36
22 16 42 32 45 35 3 3 50 42 105 85 55 44 105 84 111 90 7 5 26 21 44 35 18
14 37 30 44 35 6 6 45 37 86 70 41 33 77 62 80 65 3 3 25 21 50 40 62 48 319
256 350 283 14 12 46 38 70 57 25 19 47 37 50 40 3 3 21 17 40 31 19 15 45 35
57 45 28 24 63 53 203 165 63 51 129 104 146 118 17 14 48 39 67 55 35 28 36
30 18 45 -24 20 -49 40 -196 158 -138 110 -187 149 -224 180 -14 12 -114 93
-221 179 -107 86 -206 166 -220 177 -14 12 -42 34 -62 49 -20 15 -42 33 -50
40 -7 8 -33 29 -58 48 -25 19 -51 40 -58 48 -8 7 -30 25 -50 40 -21 15 -39 29
-42 32 -4 5 -110 91 -230 187 -8 6 -58 46 -110 88 -52 42 -110 89 -129 103
-18 15 -38 32 -45 37 -33 31 -142 115 -147 115 -3 0 -6 -675 -6 -1500z"/>
<path d="M7508 4618 c-14 -13 -54 -45 -89 -73 -35 -27 -66 -52 -69 -55 -3 -3
-61 -50 -130 -105 -69 -55 -127 -102 -130 -105 -3 -3 -61 -50 -130 -105 -69
-55 -131 -105 -138 -113 -8 -7 -30 -25 -50 -40 -21 -15 -42 -31 -48 -37 -15
-13 -64 -53 -184 -148 -52 -42 -102 -83 -110 -90 -8 -7 -49 -40 -90 -73 -41
-32 -77 -61 -80 -64 -3 -3 -39 -32 -80 -65 -41 -32 -77 -62 -80 -65 -3 -4 -31
-26 -62 -49 -32 -24 -58 -47 -58 -52 0 -5 -6 -9 -14 -9 -8 0 -16 -3 -18 -8 -1
-4 -23 -23 -48 -42 -25 -19 -47 -37 -50 -40 -3 -3 -42 -36 -87 -72 l-83 -66
33 -25 c17 -14 43 -34 57 -46 32 -26 24 -20 170 -136 69 -55 127 -102 130
-105 5 -6 109 -90 125 -102 10 -7 36 -28 135 -108 23 -19 73 -60 110 -90 37
-30 82 -66 100 -80 18 -14 41 -32 50 -40 24 -20 68 -56 239 -194 79 -64 148
-116 153 -116 5 0 6 -4 3 -10 -3 -5 -1 -10 6 -10 7 0 38 -21 68 -48 31 -26
112 -92 181 -147 69 -55 127 -102 130 -105 3 -3 25 -21 50 -40 25 -19 47 -37
50 -40 3 -3 21 -18 42 -33 l36 -28 0 1501 c0 825 -4 1500 -8 1500 -4 0 -18
-10 -32 -22z"/>
<path d="M3760 2884 c-58 -47 -112 -90 -120 -97 -9 -7 -52 -41 -95 -77 -44
-36 -86 -69 -93 -75 -8 -5 -25 -20 -38 -32 -14 -13 -28 -23 -31 -23 -3 0 -22
-15 -42 -32 -20 -18 -54 -46 -75 -63 -22 -16 -69 -55 -106 -85 -77 -63 -99
-81 -265 -214 -66 -53 -127 -102 -135 -109 -8 -7 -60 -48 -115 -92 -55 -44
-102 -82 -105 -85 -3 -3 -36 -30 -75 -60 -38 -30 -74 -60 -80 -66 -5 -6 -30
-26 -55 -45 -50 -38 -58 -44 -152 -123 -36 -31 -69 -56 -72 -56 -7 0 -66 -55
-66 -61 0 -2 20 -4 45 -4 25 0 45 4 45 8 0 5 5 5 11 1 17 -10 138 -10 132 0
-4 5 0 6 7 1 17 -10 250 -12 250 -2 0 5 5 5 11 1 14 -8 149 -11 149 -3 0 4 18
3 40 -1 23 -4 40 -3 40 2 0 5 5 6 11 2 17 -10 138 -10 132 0 -4 5 0 6 7 1 15
-9 250 -13 250 -4 0 4 18 3 40 -1 22 -4 40 -4 40 1 0 5 6 6 14 3 24 -9 126
-10 126 -1 0 4 5 5 11 1 15 -9 249 -11 249 -3 0 4 18 3 40 -1 23 -4 40 -3 40
2 0 5 5 6 11 2 17 -10 138 -10 132 0 -4 5 0 6 7 1 15 -9 250 -13 250 -4 0 4
18 3 40 -1 22 -4 40 -4 40 1 0 5 6 6 14 3 24 -9 126 -10 126 -1 0 4 5 5 11 1
15 -9 249 -11 249 -3 0 4 18 3 40 -1 23 -4 40 -3 40 2 0 5 5 6 11 2 17 -10
138 -10 132 0 -4 5 0 6 7 1 17 -10 250 -12 250 -2 0 5 5 5 11 1 14 -8 149 -11
149 -3 0 4 18 3 40 -1 23 -4 40 -3 40 2 0 5 5 6 11 2 17 -10 138 -10 132 0 -4
5 0 6 7 1 15 -9 250 -13 250 -4 0 4 18 3 40 -1 22 -4 40 -4 40 1 0 5 6 6 14 3
24 -9 126 -10 126 -1 0 4 5 5 11 1 15 -9 249 -11 249 -3 0 4 18 3 40 -1 23 -4
40 -3 40 2 0 5 5 6 11 2 17 -10 138 -10 132 0 -4 5 0 6 7 1 15 -9 250 -13 250
-4 0 4 18 3 40 -1 22 -4 40 -4 40 1 0 5 6 6 14 3 24 -9 126 -10 126 -1 0 4 5
5 11 1 17 -10 161 -11 182 -2 9 5 17 5 17 1 0 -4 40 -8 90 -8 49 0 90 1 90 1
0 1 -33 28 -72 60 -40 33 -75 61 -78 64 -3 3 -50 41 -105 85 -55 44 -102 82
-105 85 -3 3 -72 59 -155 125 -151 120 -185 148 -215 175 -9 8 -24 20 -32 25
-17 11 -96 74 -167 133 -24 21 -53 44 -63 52 -40 31 -104 82 -129 103 -14 12
-43 36 -64 52 -21 17 -48 39 -61 50 -12 11 -35 29 -50 40 -15 11 -32 25 -38
30 -20 19 -368 300 -385 310 -8 6 -23 17 -31 26 -8 8 -31 27 -50 42 l-36 26
-84 -69 c-95 -78 -100 -82 -225 -183 -49 -40 -99 -80 -110 -89 -11 -9 -67 -54
-125 -100 -58 -46 -116 -93 -130 -106 -41 -39 -99 -64 -134 -59 -30 4 -75 23
-86 36 -3 3 -39 33 -80 66 -41 33 -84 67 -95 77 -20 16 -97 79 -125 101 -60
48 -116 93 -120 97 -3 3 -50 41 -105 84 -55 44 -102 83 -105 86 -3 3 -21 18
-40 32 l-35 27 -105 -85z"/>
</g>
</svg>
