<svg xmlns="http://www.w3.org/2000/svg" viewBox="0 0 64 80" x="0px" y="0px"><title>pig-farm-animal-mammal-food</title><g><path d="M60.789,18.022a8.635,8.635,0,0,1-7.356-2.384l-.072-.081A7.7,7.7,0,0,0,47.636,13H46a1.024,1.024,0,0,0-.214.023L36.747,15l-11.4.406H13.3A11.3,11.3,0,0,0,2,26.711v8.8a6.746,6.746,0,0,0,2.605,5.346,4.805,4.805,0,0,1,1.714,2.694l1.54,6.672A1,1,0,0,0,8.833,51H13.5a1,1,0,0,0,.99-1.142l-.916-6.413,2.482-1.862-.542,3.252a1,1,0,0,0,.057.537l2,5A1,1,0,0,0,18.5,51H23a1,1,0,0,0,.929-1.372l-1.8-4.492,3.934-5.506,4.074,1.164,1.881,9.4A1,1,0,0,0,33,51h3.333a1,1,0,0,0,.984-.818L38.868,41.8c.126-.036.246-.086.371-.124L40,50.09A1,1,0,0,0,41,51h4a1,1,0,0,0,1-1.062l-.7-11.193a21.371,21.371,0,0,0,5.921-6.208,2.612,2.612,0,0,1,1.256-1.049l8.9-3.559A1,1,0,0,0,62,27V19a1,1,0,0,0-1.211-.978ZM39,18h4.416A6.339,6.339,0,0,1,39,20.923ZM20.186,44.419a1,1,0,0,0-.115.953L21.523,49H19.177l-1.645-4.112.841-5.042L20.7,38.1l3.32.949ZM43.936,49H41.913l-.728-8.011a21.165,21.165,0,0,0,2.184-1.048ZM60,26.323,51.732,29.63a4.611,4.611,0,0,0-2.21,1.848A19.339,19.339,0,0,1,37.757,40.03a1,1,0,0,0-.74.788L35.5,49H33.82l-1.84-9.2a1,1,0,0,0-.705-.765l-10.5-3a1,1,0,0,0-.875.161l-8,6a1,1,0,0,0-.39.942L12.347,49H9.629L8.268,43.1a6.813,6.813,0,0,0-2.431-3.819A4.761,4.761,0,0,1,4,35.513V31.7a8.339,8.339,0,0,0,8.6-.895,1,1,0,1,0-1.2-1.6,6.411,6.411,0,0,1-7.173.37L4,29.434V26.711a9.3,9.3,0,0,1,9.3-9.3H25.385L36.908,17c.032,0,.063-.008.095-.012L37,17v5a1,1,0,0,0,1,1,8.343,8.343,0,0,0,7.785-5.271l.143-.357A1,1,0,0,0,45,16H41.545l4.563-1h1.528a5.692,5.692,0,0,1,4.236,1.893l.072.08A10.679,10.679,0,0,0,60,20.137Z"/><path d="M49.24,18.08a1.155,1.155,0,0,0-.33.21,1.052,1.052,0,0,0-.29.71,1.5,1.5,0,0,0,.02.2,1.266,1.266,0,0,0,.06.18.757.757,0,0,0,.09.18l.12.15a1.155,1.155,0,0,0,.33.21,1,1,0,0,0,.38.08,1.033,1.033,0,0,0,.71-.29.789.789,0,0,0,.12-.15,1.618,1.618,0,0,0,.1-.18,1.209,1.209,0,0,0,.05-.18.714.714,0,0,0,.02-.2.99.99,0,0,0-1.38-.92Z"/></g><text x="0" y="79" fill="#000000" font-size="5px" font-weight="bold" font-family="'Helvetica Neue', Helvetica, Arial-Unicode, Arial, Sans-serif">Created by supalerk laipawat</text><text x="0" y="84" fill="#000000" font-size="5px" font-weight="bold" font-family="'Helvetica Neue', Helvetica, Arial-Unicode, Arial, Sans-serif">from the Noun Project</text></svg>