<?xml version="1.0" encoding="UTF-8"?>
<svg width="700pt" height="550pt" version="1.1" viewBox="0 0 700 550" xmlns="http://www.w3.org/2000/svg" xmlns:xlink="http://www.w3.org/1999/xlink">
 <g>
  <path d="m132.35 504c0 0.46484 0.1875 0.93359 0.28125 1.3984 0.09375 0.55859 0.1875 1.1211 0.28125 1.5859 0.28125 0.74609 0.65234 1.3984 1.0273 1.9609 0.1875 0.28125 0.28125 0.55859 0.46484 0.83984 0.09375 0.09375 0.1875 0.09375 0.28125 0.1875 0.74609 0.83984 1.6797 1.5859 2.707 2.0547 0.1875 0.09375 0.28125 0.1875 0.46484 0.28125 1.2109 0.65234 2.4258 1.0234 3.8242 1.0234h416.55c1.3984 0 2.707-0.375 3.8281-0.93359 0.09375-0.09375 0.1875-0.1875 0.28125-0.1875 1.1211-0.55859 2.0547-1.3086 2.8008-2.2383 0.09375-0.09375 0.1875-0.09375 0.28125-0.1875 0.1875-0.1875 0.1875-0.46484 0.375-0.74609 0.46484-0.65234 0.83984-1.3984 1.1211-2.1484 0.1875-0.46484 0.1875-0.93359 0.28125-1.3984 0.09375-0.55859 0.28125-1.0273 0.28125-1.4922l-0.011718-247.05c0-0.28125-0.09375-0.46484-0.09375-0.74609 0-0.1875-0.09375-0.375-0.09375-0.55859-0.09375-0.375-0.09375-0.74609-0.1875-1.1211v-0.1875c-0.1875-0.55859-0.46484-1.0273-0.65234-1.4922-0.09375-0.1875-0.09375-0.28125-0.1875-0.46484-0.1875-0.375-0.375-0.65234-0.65234-0.93359-0.09375-0.09375-0.09375-0.28125-0.1875-0.375s-0.28125-0.1875-0.375-0.28125c-0.28125-0.375-0.55859-0.65234-0.93359-0.93359l-0.09375-0.09375-51.148-41.254 0.007813-152.5c0-5.1328-4.1992-9.332-9.332-9.332h-307.07c-5.1328 0-9.332 4.1992-9.332 9.332v152.41l-51.238 41.348-0.1875 0.1875c-0.375 0.28125-0.55859 0.65234-0.93359 0.93359-0.09375 0.09375-0.28125 0.1875-0.375 0.28125s-0.09375 0.28125-0.1875 0.375c-0.18359 0.17969-0.37109 0.46094-0.55859 0.83594-0.09375 0.1875-0.1875 0.46484-0.28125 0.65234-0.1875 0.46484-0.46484 0.83984-0.55859 1.3086v0.1875c-0.09375 0.28125-0.09375 0.65234-0.09375 0.93359s-0.09375 0.46484-0.09375 0.74609-0.09375 0.46484-0.09375 0.65234l0.003906 247.14zm223.53-71.68 49.375-39.852 126.56 102.2h-363.72l126.65-102.2 49.375 39.852c3.4531 2.8008 8.3047 2.8008 11.758 0zm64.215-51.801 128.89-103.97v207.95zm-269.08-104.07 128.89 103.97-128.89 104.07zm392.38-19.508-30.426 24.547v-49.094zm-49.094-191.61v231.28l-144.29 116.48-144.2-116.39v-231.38zm-307.16 216.25-30.52-24.641 30.52-24.641z"/>
  <path d="m267.68 189.09c-7.7461 0-14.094-6.3477-14.094-14.094 0-5.1328-4.1992-9.332-9.332-9.332-5.1328 0-9.332 4.1992-9.332 9.332 0 14.746 9.8945 27.16 23.426 31.172v6.625c0 5.1328 4.1992 9.332 9.332 9.332 5.1328 0 9.332-4.1992 9.332-9.332v-6.625c13.535-4.0117 23.426-16.426 23.426-31.172 0-8.8672-3.9219-24.922-30.148-32.387-16.613-4.7617-16.613-12.039-16.613-14.465 0-7.7461 6.3477-14.094 14.094-14.094 7.7461 0 14.094 6.3477 14.094 14.094 0 5.1328 4.1992 9.332 9.332 9.332 5.1328 0 9.332-4.1992 9.332-9.332 0-14.746-9.8945-27.16-23.426-31.172l0.003907-6.7227c0-5.1328-4.1992-9.332-9.332-9.332-5.1328 0-9.332 4.1992-9.332 9.332v6.625c-13.535 4.0117-23.426 16.426-23.426 31.172 0 8.8672 3.9219 24.922 30.148 32.387 11.012 3.1719 16.613 8.0273 16.613 14.465-0.003906 7.8438-6.3516 14.191-14.098 14.191z"/>
  <path d="m341.97 120.03h116.76c5.1328 0 9.332-4.1992 9.332-9.332 0-5.1328-4.1992-9.332-9.332-9.332l-116.76-0.003906c-5.1328 0-9.332 4.1992-9.332 9.332 0 5.1367 4.1992 9.3359 9.332 9.3359z"/>
  <path d="m341.97 176.68h116.76c5.1328 0 9.332-4.1992 9.332-9.332 0-5.1328-4.1992-9.332-9.332-9.332l-116.76-0.003906c-5.1328 0-9.332 4.1992-9.332 9.332 0 5.1367 4.1992 9.3359 9.332 9.3359z"/>
  <path d="m341.97 233.24h116.76c5.1328 0 9.332-4.1992 9.332-9.332s-4.1992-9.332-9.332-9.332h-116.76c-5.1328 0-9.332 4.1992-9.332 9.332s4.1992 9.332 9.332 9.332z"/>
  <path d="m244.25 289.8h214.48c5.1328 0 9.332-4.1992 9.332-9.332s-4.1992-9.332-9.332-9.332l-214.48-0.003907c-5.1328 0-9.332 4.1992-9.332 9.332 0 5.1367 4.1992 9.3359 9.332 9.3359z"/>
 </g>
</svg>
