<?xml version="1.0" encoding="UTF-8"?>
<svg width="700pt" height="550pt" version="1.1" viewBox="0 0 700 550" xmlns="http://www.w3.org/2000/svg" xmlns:xlink="http://www.w3.org/1999/xlink">
 <g><path d="m566.25 502.23v-226.05l-140 113.03z" style="paint-order: stroke; fill: rgb(253, 215, 228);"></path><path d="m410.11 402.27-53.668 43.309c-3.7344 2.9883-9.0547 2.9883-12.785 0l-53.668-43.309-137.66 111.07h395.36z" style="paint-order: stroke; fill: rgb(253, 215, 228);"></path><path d="m527.24 281.68 33.043-26.691-33.043-26.789z" style="paint-order: stroke; fill: rgb(253, 215, 228);"></path><path d="m139.81 254.99 33.133 26.691v-53.48z" style="paint-order: stroke; fill: rgb(253, 215, 228);"></path><path d="m133.75 502.23 140.09-113.03-140.09-113.03z" style="paint-order: stroke; fill: rgb(253, 215, 228);"></path><path d="m193.29 298.11 156.71 126.56 156.89-126.56v-251.44h-313.6zm148.03-212.24h126.93c5.6016 0 10.172 4.5742 10.172 10.172 0 5.6016-4.5742 10.172-10.172 10.172h-126.93c-5.6016 0-10.172-4.5742-10.172-10.172 0-5.5977 4.5703-10.172 10.172-10.172zm0 61.508h126.93c5.6016 0 10.172 4.5742 10.172 10.172 0 5.6016-4.5742 10.172-10.172 10.172h-126.93c-5.6016 0-10.172-4.5742-10.172-10.172 0-5.6016 4.5703-10.172 10.172-10.172zm0 61.504h126.93c5.6016 0 10.172 4.5742 10.172 10.172 0 5.6016-4.5742 10.172-10.172 10.172h-126.93c-5.6016 0-10.172-4.5742-10.172-10.172 0-5.5977 4.5703-10.172 10.172-10.172zm-83.535-58.707c-28.559-8.1211-32.762-25.574-32.762-35.188 0-16.055 10.734-29.492 25.48-33.973l0.003906-7.2773c0-5.6016 4.5742-10.172 10.172-10.172 5.6016 0 10.172 4.5742 10.172 10.172v7.2812c14.652 4.3867 25.48 17.828 25.48 33.973 0 5.6016-4.5742 10.172-10.172 10.172-5.6016 0-10.172-4.5742-10.172-10.172 0-8.3984-6.9062-15.309-15.309-15.309-8.3984 0-15.309 6.9062-15.309 15.309 0 2.6133 0 10.547 18.105 15.68 28.559 8.1211 32.762 25.574 32.762 35.188 0 16.055-10.734 29.492-25.48 33.973v7.2812c0 5.6016-4.5742 10.172-10.172 10.172-5.6016 0-10.172-4.5742-10.172-10.172v-7.375c-14.652-4.3867-25.48-17.828-25.48-33.973 0-5.6016 4.5742-10.172 10.172-10.172 5.6016 0 10.172 4.5742 10.172 10.172 0 8.3984 6.9062 15.309 15.309 15.309 8.3984 0 15.309-6.9062 15.309-15.309 0-6.9102-6.0664-12.227-18.109-15.59zm-22.68 120.21h233.15c5.6016 0 10.172 4.5742 10.172 10.172 0 5.6016-4.5742 10.172-10.172 10.172l-233.15 0.003906c-5.6016 0-10.172-4.5742-10.172-10.172 0.09375-5.6016 4.5742-10.176 10.172-10.176z" style="paint-order: stroke; fill: rgb(253, 215, 228);"></path></g>
</svg>
